<svg width="500" height="500" xmlns="http://www.w3.org/2000/svg" xmlns:xlink="http://www.w3.org/1999/xlink" xml:space="preserve" overflow="hidden"><defs><clipPath id="clip0"><path d="M311.153 109.37 322.006 115.572 317.665 123.169 306.812 116.967Z" fill-rule="evenodd" clip-rule="evenodd"/></clipPath><clipPath id="clip1"><path d="M314.959 366.371 304.431 373.109 299.714 365.739 310.242 359.001Z" fill-rule="evenodd" clip-rule="evenodd"/></clipPath><clipPath id="clip2"><path d="M117.819 209.702 121.108 197.643 129.55 199.945 126.261 212.005Z" fill-rule="evenodd" clip-rule="evenodd"/></clipPath></defs><g><path d="M318.75 250C318.75 287.97 287.97 318.75 250 318.75 212.03 318.75 181.25 287.97 181.25 250 181.25 212.03 212.03 181.25 250 181.25 287.97 181.25 318.75 212.03 318.75 250Z" stroke="#000000" stroke-width="1.25" fill="#FFFFFF"/><text font-family="Times New Roman,Times New Roman_MSFontService,sans-serif" font-weight="400" font-size="26" transform="matrix(0.625 0 0 0.625 216.615 234)">Reflective</text><text font-family="Times New Roman,Times New Roman_MSFontService,sans-serif" font-weight="400" font-size="26" transform="matrix(0.625 0 0 0.625 225.629 255)">Duality</text><text font-family="Times New Roman,Times New Roman_MSFontService,sans-serif" font-weight="400" font-size="26" transform="matrix(0.625 0 0 0.625 231.056 276)">Layer</text><path d="M196.875 137.5C196.875 170.292 170.292 196.875 137.5 196.875 104.708 196.875 78.125 170.292 78.125 137.5 78.125 104.708 104.708 78.125 137.5 78.125 170.292 78.125 196.875 104.708 196.875 137.5Z" stroke="#000000" stroke-width="1.25" fill="#FFFFFF"/><text font-family="Times New Roman,Times New Roman_MSFontService,sans-serif" font-weight="400" font-size="24" transform="matrix(0.625 0 0 0.625 104.589 156)">Oscillation</text><path d="M106.25 128.125C112.5 121.875 118.75 121.875 125 128.125 131.25 134.375 137.5 134.375 143.75 128.125 150 121.875 156.25 121.875 162.5 128.125" stroke="#000000" stroke-width="1.875" fill="none"/><path d="M421.875 137.5C421.875 170.292 395.292 196.875 362.5 196.875 329.708 196.875 303.125 170.292 303.125 137.5 303.125 104.708 329.708 78.125 362.5 78.125 395.292 78.125 421.875 104.708 421.875 137.5Z" stroke="#000000" stroke-width="1.25" fill="#FFFFFF"/><path d="M334.375 115.625 390.625 115.625 390.625 150 334.375 150Z"/><path d="M337.5 118.75 350 128.125 359.375 121.875 365.625 131.25" stroke="#FFFFFF" stroke-width="1.875" fill="none"/><text font-family="Times New Roman,Times New Roman_MSFontService,sans-serif" font-weight="400" font-size="24" transform="matrix(0.625 0 0 0.625 336.254 163)">Collapse</text><path d="M309.375 390.625C309.375 423.417 282.792 450 250 450 217.208 450 190.625 423.417 190.625 390.625 190.625 357.833 217.208 331.25 250 331.25 282.792 331.25 309.375 357.833 309.375 390.625Z" stroke="#000000" stroke-width="1.25" fill="#FFFFFF"/><text font-family="Times New Roman,Times New Roman_MSFontService,sans-serif" font-weight="400" font-size="24" transform="matrix(0.625 0 0 0.625 235.421 409)">Drift</text><path d="M225 378.125 271.875 400" stroke="#000000" stroke-width="1.875" fill="none"/><path d="M268.75 393.75 278.125 403.125 265.625 405Z"/><path d="M181.25 118.75C225 93.75 275 93.75 318.75 118.75" stroke="#000000" stroke-width="1.25" fill="none"/><g clip-path="url(#clip0)"><path d="M311.153 109.37 319.835 119.37 306.812 116.967Z"/></g><path d="M387.5 184.375C412.5 237.5 381.25 318.75 303.125 368.75" stroke="#000000" stroke-width="1.25" fill="none"/><g clip-path="url(#clip1)"><path d="M314.959 366.371 302.072 369.424 310.242 359.001Z"/></g><path d="M196.875 368.75C137.5 337.5 106.25 268.75 125 200" stroke="#000000" stroke-width="1.25" fill="none"/><g clip-path="url(#clip2)"><path d="M117.819 209.702 125.329 198.794 126.261 212.005Z"/></g></g></svg>